<?xml version="1.0" encoding="utf-8"?>
<!-- Generator: Adobe Illustrator 27.0.0, SVG Export Plug-In . SVG Version: 6.00 Build 0)  -->
<svg version="1.1" id="Capa_1" xmlns="http://www.w3.org/2000/svg" xmlns:xlink="http://www.w3.org/1999/xlink" x="0px" y="0px"
	 viewBox="0 0 900 700" style="enable-background:new 0 0 900 700;" xml:space="preserve">
<style type="text/css">
	.st0{fill:#8094FF;}
	.st1{fill:#FFFFFF;}
	.st2{fill:#3A00E3;}
	.st3{fill:#65FFBF;stroke:#00C944;stroke-width:2;stroke-miterlimit:10;}
	.st4{fill:#E0E9FF;}
</style>
<g id="Project_management">
	<g>
		<g>
			<path class="st0" d="M293.9,471.6l30.8-74.4c0,0,151.5,12.1,182-15.5c31-28,11-82.5-11.5-132.7l-78.5,17.7
				c0,0,14.8,35.5,6.4,40.7c-24.6,15.2-242.8-1.7-242.8-1.7l-60.8,133l133.7,75.7L293.9,471.6z"/>
			<g>
				<path class="st1" d="M416.6,266.8c0,0,49.2,2.3,78.5-17.7l-36-85.5c0,0,4.1-5.6,1.6-13.1c-2.5-7.5-8.3-16.9-16.3-11
					c0,0-6.4-8.6-11.6,2.6c0,0-9.3-12-17.5,5.2l-11.1-21.6c-1.8-3.5-6-5-9.6-3.5c-3.5,1.5-5.4,5.3-4.4,9l11.4,41.7
					c0,0-8.3,13.2-5.2,23.5C399.5,206.9,416.6,266.8,416.6,266.8z"/>
				<path class="st2" d="M416.6,267.4c-0.3,0-0.5-0.2-0.6-0.4c-0.2-0.6-17.2-60-20.3-70.2c-3-9.8,4-21.9,5.1-23.8l-11.3-41.5
					c-1.1-3.9,1-8.1,4.7-9.7c3.9-1.6,8.5,0,10.4,3.8l10.6,20.5c2.7-5.3,5.9-8.2,9.3-8.5c3.8-0.4,6.8,2.2,8,3.5
					c1.7-3.3,3.7-5.1,6-5.3c2.8-0.3,5.1,1.9,5.9,2.9c2.4-1.6,4.7-2,7-1.3c5.5,1.7,8.7,9.6,9.8,12.9c2.3,6.9-0.6,12.1-1.5,13.4
					l35.9,85.2c0.1,0.3,0,0.7-0.3,0.8c-0.3,0.1-0.7,0-0.8-0.3l-36-85.5c-0.1-0.2-0.1-0.4,0.1-0.6c0-0.1,3.9-5.4,1.5-12.6
					c-0.8-2.4-3.9-10.5-9-12.2c-2-0.6-4.2-0.1-6.4,1.5c-0.3,0.2-0.6,0.1-0.8-0.1c0,0-2.4-3.2-5.2-2.9c-2,0.2-3.8,2-5.4,5.4
					c-0.1,0.2-0.3,0.3-0.5,0.3c-0.2,0-0.4-0.1-0.5-0.2c0,0-3.4-4.3-7.6-3.8c-3.3,0.4-6.3,3.4-8.9,8.9c-0.1,0.2-0.3,0.3-0.5,0.3
					c-0.2,0-0.4-0.1-0.5-0.3l-11.1-21.6c-1.6-3.2-5.5-4.6-8.9-3.2c-3.2,1.3-5,4.9-4,8.3l11.4,41.7c0,0.2,0,0.3-0.1,0.5
					c-0.1,0.1-8.1,13.1-5.1,23c3.1,10.2,20.1,69.6,20.3,70.2c0.1,0.3-0.1,0.6-0.4,0.7C416.7,267.4,416.7,267.4,416.6,267.4z"/>
				<path class="st2" d="M425.9,209.5c-0.2,0-0.4-0.1-0.5-0.4c-0.1-0.3,0-0.7,0.3-0.8c2.6-1.2,3.4-4.6,3-7.4
					c-0.2-1.7-0.8-3.2-1.3-4.9c-0.4-1.3-0.9-2.7-1.2-4c-1.4-6.6,1.4-14,6.8-17.9c0.8-0.6,1.6-1.1,2.4-1.6c1.2-0.8,2.4-1.5,3.4-2.4
					c1.4-1.3,2.8-3.6,2.1-5.7c-0.5-1.4-1.8-2.6-3.6-3c-1.6-0.4-3.2-0.4-5.2-0.1c-10.4,1.3-20.4,5.4-28.7,11.8
					c-0.3,0.2-0.6,0.2-0.8-0.1c-0.2-0.3-0.2-0.6,0.1-0.8c8.5-6.6,18.6-10.7,29.3-12.1c1.9-0.2,3.8-0.4,5.7,0.1
					c2.1,0.6,3.8,2.1,4.4,3.8c0.9,2.7-0.8,5.4-2.4,7c-1.1,1-2.4,1.8-3.6,2.5c-0.8,0.5-1.6,1-2.3,1.5c-5,3.7-7.7,10.6-6.4,16.7
					c0.3,1.3,0.7,2.6,1.2,3.9c0.6,1.6,1.1,3.3,1.4,5.1c0.4,3.2-0.5,7.2-3.7,8.6C426.1,209.4,426,209.5,425.9,209.5z"/>
				<path class="st2" d="M420,163.7c-0.3,0-0.5-0.2-0.6-0.5c-1.1-5.2-2.8-10.3-4.8-15.2c-0.1-0.3,0-0.7,0.3-0.8
					c0.3-0.1,0.7,0,0.8,0.3c2.1,5,3.8,10.1,4.9,15.4c0.1,0.3-0.1,0.6-0.5,0.7C420,163.7,420,163.7,420,163.7z"/>
				<path class="st2" d="M438.6,161.4c-0.2,0-0.5-0.2-0.6-0.4l-6.1-17.7c-0.1-0.3,0.1-0.7,0.4-0.8c0.3-0.1,0.7,0.1,0.8,0.4l6.1,17.7
					c0.1,0.3-0.1,0.7-0.4,0.8C438.8,161.3,438.7,161.4,438.6,161.4z"/>
				<path class="st2" d="M446,174.4c-1.3,0-2.6-0.5-3.7-1.4c-1-0.9-1.6-2.1-1.6-3.3c0-0.3,0.3-0.6,0.6-0.6c0.3,0,0.6,0.3,0.6,0.6
					c0,0.9,0.4,1.7,1.2,2.4c0.9,0.8,2.2,1.2,3.3,1.1c2.1-0.2,4-1.9,4.9-4.3c0.9-2.3,0.8-5,0.5-7.1c-0.8-7.3-3.3-14.4-7.3-20.6
					c-0.2-0.3-0.1-0.6,0.2-0.8c0.3-0.2,0.6-0.1,0.8,0.2c4.1,6.3,6.7,13.6,7.5,21.1c0.2,2.2,0.4,5.1-0.6,7.6c-1.1,2.8-3.3,4.7-5.8,5
					C446.4,174.4,446.2,174.4,446,174.4z"/>
				<path class="st2" d="M452.5,168.9c-0.3,0-0.6-0.3-0.6-0.6c0-0.3,0.3-0.6,0.6-0.6c2.1,0,4.1-1.3,5.1-3.1c0.2-0.3,0.5-0.4,0.8-0.2
					c0.3,0.2,0.4,0.5,0.2,0.8C457.4,167.4,455,168.9,452.5,168.9C452.5,168.9,452.5,168.9,452.5,168.9z"/>
			</g>
			<g>
				<path class="st0" d="M148.2,327.3c0,0-18.9,15.1-46,45.7c-22.9,25.8-30.2,74.8-4.8,98.1c23.7,21.8,56.1,50,93.3,78.4
					c35.1,26.7,83.3,28.5,120.4,4.6c22.8-14.7,47.9-33.5,68.4-55.5l-43.7-86l-86.6,55.4L199,414.5L148.2,327.3z"/>
				<path class="st1" d="M335.8,412.5c0,0,18.5,67.6,43.7,86c0,0,53.3-52.6,63.4-60.6c0,0,15.1,2.7,17.1-12.6
					c0,0,14.8-8.1,10.9-20.7c0,0,21.3-16-6.5-31.8c0,0,3.3-10.6,15-9.6c11.6,1,32.1-1.1,32.3-10c0.2-8.9-35.3-13.4-64.1-8.4
					C417,350.3,335.8,412.5,335.8,412.5z"/>
				<path class="st2" d="M379.5,499.1c-0.2,0-0.3-0.1-0.4-0.2c-0.2-0.2-0.2-0.6,0-0.8c0.5-0.5,53.4-52.7,63.5-60.6
					c0.1-0.1,0.3-0.1,0.5-0.1c0.1,0,6.5,1.1,11.3-2.4c2.8-2.1,4.5-5.3,5.1-9.7c0-0.2,0.1-0.4,0.3-0.4c0.1-0.1,14.4-8.1,10.6-20
					c-0.1-0.2,0-0.5,0.2-0.7c0.1-0.1,7.4-5.7,7.5-13.3c0-0.3,0.3-0.6,0.6-0.6c0,0,0,0,0,0c0.3,0,0.6,0.3,0.6,0.6
					c-0.1,7.3-6.2,12.7-7.7,14c3.3,11.7-9,19.6-11,20.8c-0.6,4.5-2.5,8-5.5,10.2c-4.7,3.4-10.6,2.8-11.9,2.6
					c-10.5,8.4-62.6,59.8-63.2,60.4C379.8,499,379.7,499.1,379.5,499.1z"/>
				<path class="st2" d="M335.8,413.1c-0.2,0-0.4-0.1-0.5-0.2c-0.2-0.3-0.2-0.6,0.1-0.8c0.1-0.1,7.8-6,19.2-14.2
					c0.3-0.2,0.6-0.1,0.8,0.1c0.2,0.3,0.1,0.6-0.1,0.8c-11.4,8.2-19.1,14.1-19.2,14.2C336.1,413,335.9,413.1,335.8,413.1z"/>
				<path class="st2" d="M470.3,402.6c-0.3,0-0.5-0.2-0.6-0.5c-1.6-7.9-7.2-14.8-14.6-17.9c-0.3-0.1-0.4-0.5-0.3-0.8
					s0.5-0.4,0.8-0.3c7.7,3.3,13.6,10.5,15.3,18.8c0.1,0.3-0.1,0.6-0.5,0.7C470.4,402.6,470.3,402.6,470.3,402.6z"/>
				<path class="st2" d="M459.9,424.6c-0.3,0-0.5-0.2-0.6-0.5c-2.2-8.8-8.3-16.3-16.4-20.3c-0.3-0.1-0.4-0.5-0.3-0.8
					c0.1-0.3,0.5-0.4,0.8-0.3c8.4,4.1,14.8,12,17,21.1c0.1,0.3-0.1,0.6-0.4,0.7C459.9,424.6,459.9,424.6,459.9,424.6z"/>
				<path class="st2" d="M442.5,438.1c-0.2,0-0.3-0.1-0.4-0.2c-0.2-0.2-0.2-0.6,0-0.8c2.5-2.5,4.6-5.3,6.1-8.5
					c0.1-0.3,0.5-0.4,0.8-0.3c0.3,0.1,0.4,0.5,0.3,0.8c-1.6,3.3-3.7,6.3-6.3,8.9C442.8,438,442.7,438.1,442.5,438.1z"/>
				<path class="st2" d="M464.5,373.6c-0.1,0-0.2,0-0.3-0.1l-4.3-2.9c-0.3-0.2-0.3-0.6-0.2-0.8c0.2-0.3,0.6-0.3,0.8-0.2l4.3,2.9
					c0.3,0.2,0.3,0.6,0.2,0.8C464.8,373.5,464.7,373.6,464.5,373.6z"/>
				<path class="st2" d="M225.1,483.8c-0.2,0-0.4-0.1-0.5-0.3c-0.2-0.3-0.1-0.6,0.2-0.8l92.6-59.4c0.3-0.2,0.6-0.1,0.8,0.2
					c0.2,0.3,0.1,0.6-0.2,0.8l-92.6,59.4C225.3,483.8,225.2,483.8,225.1,483.8z"/>
				<path class="st2" d="M249.2,468.4c-0.2,0-0.3-0.1-0.4-0.2l-50.3-53.3c-0.2-0.2-0.2-0.6,0-0.8c0.2-0.2,0.6-0.2,0.8,0l50.3,53.3
					c0.2,0.2,0.2,0.6,0,0.8C249.5,468.4,249.4,468.4,249.2,468.4z"/>
			</g>
		</g>
		<g>
			<path class="st2" d="M147.6,261.6c-3-3.5-5.5-7.6-6.3-11.8c-0.8-4.2,0.4-8.6,3.7-11c-6.6-5.1-10.3-13.2-10.5-20.6
				c-0.3-9.9,4.6-17.1,6.9-20.1c9-12.1,19.4-11.5,40.9-22.6c23.8-12.3,25.3-20.5,32.4-18.6c20.6,5.6,6.9,74.5,5.9,78.5
				c-0.3,1.3-1.5,4.2-4,6c-0.4,0.3-1,0.5-1.9,0.4c-4.5-0.2-9.1-0.3-13.1,1c-1.8,0.6-3.6,8-4.3,9.8c-1.4,3.5-2.7,7.1-3.8,10.8
				c-1.1,3.6-2.1,7.3-3,11.1c-0.9,3.9-0.5,5.4-5.1,5.4C171.7,279.7,156.8,272.3,147.6,261.6z"/>
			<path class="st1" d="M195.7,304.5c0,0-37.9-8.4-48.2,5.2c-10.3,13.6-7.7,26.6-7.7,26.6s25.4,23.4,64.7,32.5l3.5-34.6l13,12.7
				c0,0,6.9-11.6-0.1-30.2C217.6,307.9,195.7,304.5,195.7,304.5z"/>
			<path class="st2" d="M139.8,336.9c-0.3,0-0.5-0.2-0.6-0.5c0-0.1-2.5-13.4,7.9-27.1c10.4-13.8,47.2-5.8,48.8-5.5
				c0.3,0.1,0.5,0.4,0.5,0.7c-0.1,0.3-0.4,0.5-0.7,0.5c-0.4-0.1-37.6-8.1-47.6,5c-10,13.2-7.7,26-7.6,26.1c0.1,0.3-0.1,0.6-0.5,0.7
				C139.9,336.9,139.9,336.9,139.8,336.9z"/>
			<g>
				<g>
					<path class="st1" d="M176.3,283.1L162,320.5c0,0,18.6,21.4,50.2,3l7.2-27.7C219.4,295.8,194.9,271,176.3,283.1z"/>
					<path class="st2" d="M187.3,331.5c-4.9,0-9-0.9-12.3-2.1c-8.6-3.1-13.3-8.4-13.5-8.6c-0.1-0.2-0.2-0.4-0.1-0.6l14.3-37.3
						c0-0.1,0.1-0.2,0.2-0.3c7.8-5.1,17.9-4.5,29.1,1.7c8.4,4.7,14.6,10.9,14.7,11c0.1,0.2,0.2,0.4,0.2,0.6l-7.2,27.7
						c0,0.2-0.1,0.3-0.3,0.4C202.7,329.7,194.3,331.5,187.3,331.5z M162.7,320.3c1,1.1,5.5,5.4,12.8,8c7.7,2.7,20.2,4,36.1-5.2
						l7.1-27.1c-2.6-2.5-24.9-23.3-41.9-12.4L162.7,320.3z"/>
				</g>
				<path class="st2" d="M187.9,331.6c-0.9,0-1.9,0-2.8-0.1c-20.2-1.2-30.1-18.8-30.2-19c-0.2-0.3-0.1-0.7,0.2-0.8
					c0.3-0.2,0.7-0.1,0.8,0.2c0.1,0.2,9.8,17.2,29.3,18.4c19.6,1.2,30.7-10.6,30.8-10.7c0.2-0.2,0.6-0.3,0.8,0
					c0.2,0.2,0.3,0.6,0,0.8C216.7,320.5,206.2,331.6,187.9,331.6z"/>
			</g>
			<g>
				<path class="st1" d="M214.8,211.2c0,0,25.5,47.7,26.1,64.1c0.8,21.7-33.4,42.7-54.8,13.9c0,0-24.3,3.9-27-13.4
					c-2.4-15.6,18-8.4,20.8-2.9l4.8-0.9c0,0-13-19.9-11-31.3C175.7,229.4,214.8,211.2,214.8,211.2z"/>
				<path class="st2" d="M211,303.9c-9.4,0-18.3-4.8-25.2-14c-2.2,0.3-13.9,1.6-21.3-3.9c-3.3-2.4-5.3-5.8-6-10
					c-1-6.5,1.8-8.8,4.4-9.7c5.9-1.9,14.9,2.4,17.3,6l3.5-0.6c-2.4-3.8-12.4-20.6-10.6-30.9c2-11.5,39.9-29.3,41.5-30
					c0.3-0.1,0.6,0,0.8,0.3c1,2,25.5,48,26.1,64.3c0.4,11.2-8.2,22.5-20.5,26.9C217.6,303.3,214.3,303.9,211,303.9z M186.1,288.6
					c0.2,0,0.4,0.1,0.5,0.2c9,12.1,21.4,16.6,34,12.1c11.6-4.1,20.1-15.1,19.7-25.7c-0.6-15.1-23-58.2-25.7-63.3
					c-4.6,2.2-38.5,18.7-40.3,28.9c-1.9,11,10.8,30.6,10.9,30.8c0.1,0.2,0.1,0.4,0,0.6c-0.1,0.2-0.2,0.3-0.4,0.4l-4.8,0.9
					c-0.3,0-0.5-0.1-0.6-0.3c-1.7-3.3-10.8-7.5-16.1-5.8c-3.1,1-4.3,3.8-3.6,8.4c0.6,3.9,2.5,7.1,5.5,9.3
					C172.9,290.6,185.9,288.7,186.1,288.6C186,288.6,186.1,288.6,186.1,288.6z"/>
			</g>
			<path class="st2" d="M182.4,281.6c-0.1,0-0.2,0-0.3-0.1c-2.9-1.5-6.4-1.8-9.6-0.8c-0.3,0.1-0.7-0.1-0.7-0.4
				c-0.1-0.3,0.1-0.7,0.4-0.7c3.4-1.1,7.3-0.7,10.5,0.9c0.3,0.1,0.4,0.5,0.3,0.8C182.8,281.5,182.6,281.6,182.4,281.6z"/>
		</g>
	</g>
	<g>
		<circle class="st3" cx="394.9" cy="113.9" r="14.3"/>
		<path class="st2" d="M625.4,114.5H420c-0.3,0-0.6-0.3-0.6-0.6c0-0.3,0.3-0.6,0.6-0.6h205.4c0.3,0,0.6,0.3,0.6,0.6
			C626,114.2,625.7,114.5,625.4,114.5z"/>
		<path class="st2" d="M625.4,132.1H477.5c-0.3,0-0.6-0.3-0.6-0.6c0-0.3,0.3-0.6,0.6-0.6h147.8c0.3,0,0.6,0.3,0.6,0.6
			C626,131.9,625.7,132.1,625.4,132.1z"/>
		<path class="st2" d="M625.4,149.8H477.5c-0.3,0-0.6-0.3-0.6-0.6c0-0.3,0.3-0.6,0.6-0.6h147.8c0.3,0,0.6,0.3,0.6,0.6
			C626,149.5,625.7,149.8,625.4,149.8z"/>
	</g>
	<g>
		<g>
			<path class="st1" d="M801.7,319.4c-0.9,0-1.8-0.2-2.7-0.5c-15.2-6.2-37.4-11.1-64.3-14.1c-3.9-0.4-6.8-4-6.3-7.9
				c0.4-3.9,4-6.8,7.9-6.3c28.2,3.1,51.7,8.4,68.1,15.1c3.7,1.5,5.4,5.7,3.9,9.4C807.2,317.7,804.5,319.4,801.7,319.4z"/>
			<path class="st2" d="M801.7,320c-1,0-2-0.2-2.9-0.6c-15.1-6.2-37.3-11.1-64.1-14.1c-2.1-0.2-3.9-1.3-5.2-2.9
				c-1.3-1.6-1.9-3.7-1.7-5.7c0.2-2.1,1.3-3.9,2.9-5.2c1.6-1.3,3.7-1.9,5.7-1.7c28.2,3.1,51.8,8.4,68.3,15.1
				c1.9,0.8,3.4,2.3,4.2,4.2c0.8,1.9,0.8,4,0,6C807.7,318.1,804.8,320,801.7,320z M735.5,291c-1.5,0-2.9,0.5-4.1,1.4
				c-1.4,1.1-2.2,2.7-2.4,4.4c-0.2,1.7,0.3,3.5,1.4,4.8c1.1,1.4,2.7,2.2,4.4,2.4c26.9,3,49.2,7.9,64.4,14.1c0.8,0.3,1.6,0.5,2.5,0.5
				c2.7,0,5.1-1.6,6.1-4.1c0.7-1.6,0.7-3.4,0-5c-0.7-1.6-1.9-2.9-3.6-3.5c-16.4-6.7-39.9-11.9-68-15C736,291,735.7,291,735.5,291z"
				/>
		</g>
		<path class="st4" d="M488.4,360.6c-3.8,0-6.9-2.9-7.2-6.7c-0.2-4,2.8-7.4,6.7-7.6c47.5-3,93.4-7.8,136.3-14.3
			c3.9-0.6,7.6,2.1,8.2,6c0.6,3.9-2.1,7.6-6,8.2c-43.4,6.6-89.6,11.5-137.6,14.4C488.7,360.6,488.6,360.6,488.4,360.6z"/>
		<g>
			<path class="st1" d="M409.1,507.4c-3.9,0-7.1-3.1-7.2-7.1c-0.1-4,3.1-7.2,7.1-7.3c40-0.7,80-2.7,118.9-6.1
				c3.9-0.3,7.4,2.6,7.8,6.5c0.3,3.9-2.6,7.4-6.5,7.8c-39.2,3.4-79.5,5.4-119.8,6.1C409.2,507.4,409.2,507.4,409.1,507.4z"/>
			<path class="st2" d="M409.1,508c-4.2,0-7.7-3.4-7.8-7.6c0-2.1,0.7-4,2.2-5.5c1.4-1.5,3.4-2.3,5.5-2.4c40-0.7,80-2.7,118.8-6.1
				c2.1-0.2,4.1,0.5,5.7,1.8c1.6,1.3,2.6,3.2,2.7,5.3c0.4,4.3-2.8,8-7.1,8.4c-39.2,3.4-79.5,5.4-119.9,6.1L409.1,508z M528.5,487.5
				c-0.2,0-0.4,0-0.6,0c-38.9,3.3-78.9,5.4-118.9,6.1c-1.8,0-3.4,0.7-4.6,2c-1.2,1.3-1.9,2.9-1.8,4.7c0.1,3.6,3,6.5,6.6,6.5l0.1,0
				c40.3-0.7,80.6-2.8,119.8-6.1c3.6-0.3,6.3-3.5,6-7.1c-0.2-1.8-1-3.3-2.3-4.5C531.5,488.1,530,487.5,528.5,487.5z"/>
		</g>
		<g>
			<path class="st4" d="M378.3,320.2c-0.3,0-0.6-0.3-0.6-0.6c0-0.3,0.3-0.6,0.6-0.6c114,0,226.4-10.8,316.5-30.5
				c80.6-17.6,130.7-40.3,130.7-59.1c0-16.4-34.5-30.5-90.1-36.7c-0.3,0-0.6-0.3-0.5-0.7c0-0.3,0.3-0.6,0.7-0.5
				c28.3,3.2,51.6,8.4,67.5,15.1c15.5,6.6,23.7,14.4,23.7,22.8c0,19.8-49.2,42.3-131.6,60.3C604.9,309.4,492.4,320.2,378.3,320.2z"
				/>
			<path class="st4" d="M378.3,391.6c-0.3,0-0.6-0.3-0.6-0.6c0-0.3,0.3-0.6,0.6-0.6c114,0,226.4-10.8,316.5-30.5
				c80.6-17.6,130.7-40.3,130.7-59.1c0-16.4-34.5-30.5-90.1-36.7c-0.3,0-0.6-0.3-0.5-0.7c0-0.3,0.3-0.6,0.7-0.5
				c28.3,3.2,51.6,8.4,67.5,15.1c15.5,6.6,23.7,14.4,23.7,22.8c0,19.8-49.2,42.3-131.6,60.3C604.9,380.8,492.4,391.6,378.3,391.6z"
				/>
			<path class="st4" d="M378.3,463c-0.3,0-0.6-0.3-0.6-0.6c0-0.3,0.3-0.6,0.6-0.6c114,0,226.4-10.8,316.5-30.5
				c80.6-17.6,130.7-40.3,130.7-59.1c0-16.4-34.5-30.5-90.1-36.7c-0.3,0-0.6-0.3-0.5-0.7c0-0.3,0.3-0.6,0.7-0.5
				c28.3,3.2,51.6,8.4,67.5,15.1c15.5,6.6,23.7,14.4,23.7,22.8c0,19.8-49.2,42.3-131.6,60.3C604.9,452.1,492.4,463,378.3,463z"/>
			<path class="st4" d="M378.3,534.4c-0.3,0-0.6-0.3-0.6-0.6s0.3-0.6,0.6-0.6c114,0,226.4-10.8,316.5-30.5
				c80.6-17.6,130.7-40.3,130.7-59.1c0-16.4-34.5-30.5-90.1-36.7c-0.3,0-0.6-0.3-0.5-0.7c0-0.3,0.3-0.6,0.7-0.5
				c28.3,3.2,51.6,8.4,67.5,15.1c15.5,6.6,23.7,14.4,23.7,22.8c0,19.8-49.2,42.3-131.6,60.3C604.9,523.5,492.4,534.4,378.3,534.4z"
				/>
		</g>
		<g>
			<path class="st2" d="M378.3,594.3c-20.8,0-42-0.4-62.8-1.1v0.5c0,0.3-0.3,0.6-0.6,0.6c-0.3,0-0.6-0.3-0.6-0.6V226.2
				c0-0.2,0.1-0.3,0.2-0.4c0.1-0.1,0.3-0.2,0.4-0.2c21,0.7,42.3,1.1,63.3,1.1c114,0,226.4-10.8,316.5-30.5
				c80.6-17.6,130.7-40.3,130.7-59.1c0-17.5-41.6-36.6-134.4-39.8v90.7c0,0.3-0.3,0.6-0.6,0.6c-0.3,0-0.6-0.3-0.6-0.6V96.6
				c0-0.2,0.1-0.3,0.2-0.4c0.1-0.1,0.3-0.2,0.4-0.2c41.4,1.4,76.2,6.2,100.6,13.9c23.3,7.3,35.6,16.7,35.6,27.1
				c0,19.8-49.2,42.3-131.6,60.3c-90.2,19.7-202.7,30.5-316.8,30.5c-20.9,0-42-0.4-62.8-1.1V592c20.8,0.7,41.9,1.1,62.8,1.1
				c114,0,226.4-10.8,316.5-30.5c80.6-17.6,130.7-40.3,130.7-59.1c0-0.3,0.3-0.6,0.6-0.6c0.3,0,0.6,0.3,0.6,0.6
				c0,19.8-49.2,42.3-131.6,60.3C604.9,583.4,492.4,594.3,378.3,594.3z"/>
			<g>
				<path class="st2" d="M690.6,419.2c-0.3,0-0.6-0.3-0.6-0.6V208.9c0-0.3,0.3-0.6,0.6-0.6c0.3,0,0.6,0.3,0.6,0.6v209.7
					C691.2,418.9,690.9,419.2,690.6,419.2z"/>
				<path class="st2" d="M826.2,503.4c-0.3,0-0.6-0.3-0.6-0.6c0-17.5-41.7-36.7-135-39.9c-0.3,0-0.6-0.3-0.6-0.6v-17.7
					c0-0.3,0.3-0.6,0.6-0.6c0.3,0,0.6,0.3,0.6,0.6v17.1c41.1,1.4,75.7,6.3,100,13.9c23.3,7.3,35.6,16.7,35.6,27.1
					C826.8,503.2,826.5,503.4,826.2,503.4z"/>
			</g>
			<path class="st2" d="M826.2,504c-0.3,0-0.6-0.3-0.6-0.6V137.1c0-0.3,0.3-0.6,0.6-0.6c0.3,0,0.6,0.3,0.6,0.6v366.4
				C826.8,503.8,826.5,504,826.2,504z"/>
		</g>
		<g>
			<path class="st0" d="M625.3,414.6c-3.5,0-6.5-2.5-7.1-6.1c-0.6-3.9,2.1-7.6,6-8.2c45.3-6.9,86.6-15.7,119.4-25.4
				c3.8-1.1,7.8,1,8.9,4.8c1.1,3.8-1,7.8-4.8,8.9c-33.4,9.9-75.3,18.8-121.3,25.8C626.1,414.5,625.7,414.6,625.3,414.6z"/>
			<g>
				<path class="st2" d="M593.6,493c-0.3,0-0.6-0.3-0.6-0.6v-80.3c0-0.3,0.2-0.5,0.5-0.6l16.4-3c0.3-0.1,0.6,0.2,0.7,0.5
					c0.1,0.3-0.2,0.6-0.5,0.7l-15.9,2.9v79.8C594.2,492.8,593.9,493,593.6,493z"/>
				<circle class="st0" cx="594.1" cy="498.5" r="10.9"/>
			</g>
		</g>
	</g>
</g>
</svg>
